<?xml version="1.0" encoding="UTF-8"?>
<svg id="Capa_2" data-name="Capa 2" xmlns="http://www.w3.org/2000/svg" version="1.1" viewBox="0 0 490.3 294.9">
  <defs>
    <style>
      .cls-1 {
        fill: #262626;
        stroke-width: 0px;
      }
    </style>
  </defs>
  <g id="Capa_1-2" data-name="Capa 1-2">
    <path class="cls-1" d="M178.4,27.8C171.2,10.8,154.8,0,136.3,0c-18.4.1-34.8,11.3-41.6,28.4L1.8,260.2c-5.1,12.8,1.1,27.2,13.8,32.3,12.7,5.1,27.2-1.1,32.3-13.8L136.7,57.1l93.1,222.5c4,9.5,13.2,15.3,22.9,15.3s6.4-.6,9.6-1.9c12.7-5.3,18.6-19.9,13.3-32.5L178.4,27.8Z"/>
    <path class="cls-1" d="M241.1,15.5c-5.2-12.7-19.7-18.8-32.4-13.6-12.7,5.2-18.8,19.7-13.6,32.4l100.2,245.1c3.9,9.6,13.2,15.5,23,15.5s6.3-.6,9.4-1.9c12.7-5.2,18.8-19.7,13.6-32.4L241.1,15.5Z"/>
    <path class="cls-1" d="M425.1,124.1c4.8-10.2,7.5-21.5,7.5-33.5v-3.7C432.6,39,393.6,0,345.6,0h-62.6C269.3,0,258.2,11.1,258.2,24.9s11.1,24.9,24.9,24.9h62.6c20.5,0,37.2,16.7,37.2,37.2v3.7c0,16.3-13.3,29.6-29.6,29.6h-22.7c-13.7,0-24.9,11.1-24.9,24.9s11.1,24.9,24.9,24.9h67.8c23.3,0,42.2,17.8,42.2,39.7v3.8c0,17.5-15.2,31.7-34,31.7h-24.5c-13.7,0-24.9,11.1-24.9,24.9s11.1,24.9,24.9,24.9h24.5c46.1,0,83.7-36.5,83.7-81.5v-3.8c0-40.2-27.5-74.4-65.2-85.5h0Z"/>
  </g>
</svg>