<?xml version="1.0" encoding="UTF-8"?><svg id="Capa_2" xmlns="http://www.w3.org/2000/svg" viewBox="0 0 490.3 294.9"><defs><style>.cls-1{fill:#fff;stroke-width:0px;}</style></defs><g id="Capa_1-2"><path class="cls-1" d="M178.36,27.78C171.24,10.77,154.82-.02,136.3,0c-18.44.14-34.78,11.29-41.63,28.4L1.79,260.16c-5.11,12.75,1.09,27.22,13.83,32.33,12.75,5.13,27.22-1.08,32.33-13.83L136.73,57.12l93.1,222.5c3.99,9.53,13.22,15.27,22.95,15.27,3.2,0,6.45-.62,9.59-1.94,12.67-5.3,18.64-19.87,13.34-32.53L178.36,27.78Z"/><path class="cls-1" d="M241.07,15.46c-5.2-12.71-19.72-18.81-32.42-13.61-12.71,5.2-18.8,19.71-13.61,32.42l100.22,245.15c3.94,9.63,13.22,15.46,23.02,15.46,3.13,0,6.32-.6,9.4-1.86,12.71-5.2,18.8-19.71,13.6-32.42L241.07,15.46Z"/><path class="cls-1" d="M425.11,124.1c4.77-10.19,7.51-21.5,7.51-33.47v-3.65C432.62,39.02,393.6,0,345.64,0h-62.58c-13.73,0-24.86,11.13-24.86,24.86s11.13,24.86,24.86,24.86h62.58c20.54,0,37.25,16.71,37.25,37.25v3.65c0,16.32-13.28,29.6-29.6,29.6h-22.72c-13.73,0-24.86,11.13-24.86,24.86s11.13,24.86,24.86,24.86h67.8c23.27,0,42.2,17.8,42.2,39.68v3.79c0,17.5-15.23,31.74-33.95,31.74h-24.54c-13.73,0-24.86,11.13-24.86,24.86s11.13,24.86,24.86,24.86h24.54c46.14,0,83.68-36.55,83.68-81.47v-3.79c0-40.25-27.5-74.37-65.19-85.54Z"/></g></svg>