<svg width="20" height="20" viewBox="0 0 20 20" fill="none" xmlns="http://www.w3.org/2000/svg">
<path fill-rule="evenodd" clip-rule="evenodd" d="M20 10C20 15.5228 15.5228 20 10 20C4.47715 20 0 15.5228 0 10C0 4.47715 4.47715 0 10 0C15.5228 0 20 4.47715 20 10ZM8.2456 5.5832C7.8896 5.5072 7.496 5.4688 7.0648 5.4688H2.8V14.532H7.1928C7.5928 14.5328 7.992 14.4816 8.3792 14.38C8.764 14.2784 9.1064 14.1224 9.4072 13.9104C9.708 13.6992 9.9472 13.4264 10.1248 13.092C10.3024 12.7576 10.3912 12.3616 10.3912 11.9048C10.3912 11.3376 10.2536 10.8528 9.9784 10.4512C9.7032 10.0496 9.2864 9.768 8.728 9.6072C9.1336 9.4128 9.4408 9.1632 9.648 8.8584C9.8552 8.5536 9.9592 8.1728 9.9592 7.716C9.9592 7.2928 9.8896 6.9376 9.7496 6.6496C9.6096 6.3616 9.4128 6.1312 9.1592 5.9576C8.9056 5.784 8.6016 5.6592 8.2456 5.5832ZM7.6872 8.8832C7.4584 9.052 7.1664 9.1368 6.8112 9.1368L4.7936 9.1384V7.0184H6.6584C6.8312 7.0176 7.0032 7.0328 7.1728 7.0624C7.3376 7.092 7.4832 7.1448 7.6104 7.2208C7.7376 7.2968 7.8392 7.4032 7.9152 7.5384C7.9912 7.6736 8.0296 7.8472 8.0296 8.0584C8.0304 8.4392 7.916 8.7136 7.6872 8.8832ZM7.484 12.9256C7.3008 12.964 7.1136 12.9832 6.9256 12.9824L4.7936 12.9832V10.4952H6.964C7.3952 10.4952 7.7424 10.5944 8.0048 10.7936C8.2672 10.992 8.3984 11.3248 8.3984 11.7896C8.3984 12.0264 8.3576 12.2216 8.2776 12.3736C8.1968 12.5256 8.0888 12.6464 7.9536 12.7352C7.8184 12.824 7.6616 12.8872 7.484 12.9256ZM14.0664 13.1856C13.5584 13.1856 13.1688 13.0544 12.8984 12.792C12.628 12.5304 12.48 12.1072 12.4552 11.5256H17.1896C17.2232 11.0176 17.1808 10.5312 17.0624 10.0656C16.944 9.6 16.7512 9.1856 16.4848 8.8216C16.2184 8.4576 15.8776 8.168 15.4632 7.952C15.048 7.736 14.5616 7.628 14.0032 7.628C13.504 7.628 13.0488 7.7168 12.6384 7.8944C12.228 8.072 11.8744 8.3152 11.5784 8.624C11.2824 8.9328 11.0536 9.2984 10.8928 9.7216C10.732 10.1448 10.652 10.6016 10.652 11.092C10.652 11.5992 10.7304 12.0648 10.8864 12.488C11.0424 12.9112 11.2648 13.2744 11.5528 13.5792C11.8408 13.884 12.192 14.1192 12.6064 14.284C13.0208 14.4488 13.4864 14.5312 14.0024 14.5312C14.7472 14.5312 15.3816 14.3616 15.9064 14.0232C16.4312 13.6848 16.8208 13.1224 17.0744 12.3352H15.488C15.4288 12.5384 15.268 12.7312 15.0056 12.9128C14.7432 13.0944 14.4304 13.1856 14.0664 13.1856ZM13.952 8.9848C14.392 8.9848 14.72 9.1032 14.936 9.34C15.1512 9.5768 15.3016 9.924 15.3872 10.38H12.4552C12.4632 10.2536 12.4912 10.1096 12.5376 9.9488C12.584 9.788 12.664 9.636 12.7784 9.492C12.8928 9.348 13.0448 9.228 13.2352 9.1304C13.4248 9.0336 13.664 8.9848 13.952 8.9848ZM15.8096 5.9288H12.1464V6.9448H15.8096V5.9288Z" fill="#262626"/>
</svg>
