<svg width="20" height="20" viewBox="0 0 20 20" fill="none" xmlns="http://www.w3.org/2000/svg">
<path fill-rule="evenodd" clip-rule="evenodd" d="M20 10C20 15.5229 15.5229 20 10 20C4.47714 20 0 15.5229 0 10C0 4.47714 4.47714 0 10 0C15.5229 0 20 4.47714 20 10ZM8.24561 5.58319C7.88959 5.5072 7.496 5.46881 7.06479 5.46881H2.79999V14.532H7.19281C7.5928 14.5328 7.992 14.4816 8.37921 14.38C8.76401 14.2784 9.10641 14.1224 9.4072 13.9104C9.70801 13.6992 9.9472 13.4264 10.1248 13.092C10.3024 12.7576 10.3912 12.3616 10.3912 11.9048C10.3912 11.3376 10.2536 10.8528 9.97839 10.4512C9.70319 10.0496 9.28641 9.76801 8.728 9.60721C9.13361 9.41281 9.4408 9.16321 9.64801 8.8584C9.85519 8.55359 9.9592 8.17279 9.9592 7.716C9.9592 7.29279 9.88959 6.93759 9.7496 6.6496C9.60959 6.3616 9.41281 6.1312 9.15921 5.95761C8.90561 5.784 8.60159 5.65921 8.24561 5.58319ZM7.68719 8.88321C7.4584 9.052 7.16641 9.13681 6.81119 9.13681L4.79361 9.1384V7.0184H6.65839C6.76346 7.01791 6.86819 7.02335 6.97229 7.03433C7.03943 7.04141 7.10629 7.05081 7.17279 7.06241C7.33759 7.09201 7.48322 7.14481 7.61041 7.22079C7.73761 7.29681 7.8392 7.4032 7.91519 7.53839C7.99121 7.67361 8.0296 7.8472 8.0296 8.05841C8.0304 8.43921 7.91602 8.71359 7.68719 8.88321ZM7.48401 12.9256C7.30081 12.964 7.11359 12.9832 6.9256 12.9824L4.79361 12.9832V10.4952H6.96399C7.3952 10.4952 7.7424 10.5944 8.00479 10.7936C8.26721 10.992 8.39841 11.3248 8.39841 11.7896C8.39841 12.0264 8.3576 12.2216 8.27759 12.3736C8.19681 12.5256 8.08881 12.6464 7.95361 12.7352C7.81839 12.824 7.66159 12.8872 7.48401 12.9256ZM14.0664 13.1856C13.5584 13.1856 13.1688 13.0544 12.8984 12.792C12.628 12.5304 12.48 12.1072 12.4552 11.5256H17.1896C17.2232 11.0176 17.1808 10.5312 17.0624 10.0656C16.944 9.60001 16.7512 9.18561 16.4848 8.82159C16.2184 8.45761 15.8776 8.168 15.4632 7.952C15.048 7.73599 14.5616 7.62799 14.0032 7.62799C13.504 7.62799 13.0488 7.7168 12.6384 7.89441C12.228 8.07199 11.8744 8.31519 11.5784 8.62399C11.2824 8.9328 11.0536 9.2984 10.8928 9.72159C10.732 10.1448 10.652 10.6016 10.652 11.092C10.652 11.5992 10.7304 12.0648 10.8864 12.488C11.0424 12.9112 11.2648 13.2744 11.5528 13.5792C11.8408 13.884 12.192 14.1192 12.6064 14.284C13.0208 14.4488 13.4864 14.5312 14.0024 14.5312C14.7472 14.5312 15.3816 14.3616 15.9064 14.0232C16.4312 13.6848 16.8208 13.1224 17.0744 12.3352H15.488C15.4288 12.5384 15.268 12.7312 15.0056 12.9128C14.7432 13.0944 14.4304 13.1856 14.0664 13.1856ZM13.952 8.9848C14.392 8.9848 14.72 9.10321 14.936 9.34C15.1512 9.57681 15.3016 9.92401 15.3872 10.38H12.4552C12.4614 10.2827 12.4794 10.1749 12.5085 10.057C12.5172 10.0219 12.5269 9.98578 12.5376 9.94879C12.584 9.78799 12.664 9.63599 12.7784 9.492C12.8928 9.34799 13.0448 9.228 13.2352 9.1304C13.4248 9.0336 13.664 8.9848 13.952 8.9848ZM15.8096 5.9288H12.1464V6.94479H15.8096V5.9288Z" fill="white"/>
</svg>
