<svg width="20" height="20" viewBox="0 0 20 20" fill="none" xmlns="http://www.w3.org/2000/svg">
<g clip-path="url(#clip0_1_56)">
<path d="M5.85873 0C8.6186 0 11.379 0 14.1388 0C14.1696 0.00876577 14.2005 0.0233754 14.2318 0.0253233C14.853 0.0672042 15.4532 0.203074 16.0299 0.433906C17.4744 1.01245 18.5638 1.98886 19.2917 3.35924C19.8117 4.33711 20.0039 5.38803 20 6.48813C19.9917 8.80083 20.0015 11.114 19.9936 13.4267C19.9922 13.8334 19.9736 14.2444 19.9115 14.6457C19.6698 16.2162 18.9145 17.5087 17.6833 18.5114C16.5005 19.4746 15.1264 19.9129 13.6012 19.9095C11.2063 19.9041 8.81133 19.9046 6.41687 19.9095C5.13623 19.9119 3.94414 19.612 2.86749 18.9102C1.54625 18.0497 0.657927 16.8644 0.238713 15.3474C0.124248 14.933 0.0777772 14.5 0 14.0759C0 11.3283 0 8.58023 0 5.83265C0.0097833 5.78346 0.0249474 5.73428 0.0293499 5.6846C0.0968547 4.88253 0.307196 4.11943 0.682874 3.40696C1.53304 1.79504 2.83324 0.722202 4.59913 0.233754C5.00905 0.120286 5.43805 0.07597 5.85873 0ZM18.1226 9.95792C18.1226 8.74629 18.1294 7.53418 18.1182 6.32256C18.1152 5.98751 18.0947 5.64516 18.0208 5.31985C17.5508 3.24382 15.8162 1.87052 13.6736 1.8676C11.2263 1.86419 8.77904 1.86321 6.33126 1.87101C6.00157 1.87198 5.66404 1.89584 5.34364 1.96792C3.25833 2.4364 1.87888 4.16325 1.87595 6.29626C1.87252 8.73266 1.87155 11.1691 1.87937 13.6059C1.88035 13.9342 1.90432 14.2702 1.97672 14.5892C2.44534 16.6579 4.176 18.0361 6.30485 18.0409C8.76535 18.0468 11.2258 18.0424 13.6859 18.0419C14.177 18.0419 14.6598 17.9791 15.1245 17.8164C16.9774 17.1673 18.1177 15.568 18.1226 13.6132C18.1255 12.3948 18.1231 11.1768 18.1231 9.9584L18.1226 9.95792Z" fill="#F6F6F6"/>
<path d="M14.9973 9.9748C14.9782 12.7273 12.7129 14.9615 9.97065 14.9328C7.20834 14.9041 4.98068 12.6659 4.99976 9.93876C5.01883 7.18631 7.28416 4.95201 10.0264 4.98074C12.7887 5.00948 15.0164 7.24767 14.9973 9.9748V9.9748ZM13.1223 9.96165C13.1253 8.25622 11.7282 6.85662 10.0132 6.84688C8.29379 6.83714 6.87815 8.23771 6.87472 9.95191C6.8713 11.6559 8.26982 13.0574 9.98386 13.0672C11.7023 13.0769 13.1194 11.6749 13.1223 9.96165V9.96165Z" fill="#F6F6F6"/>
<path d="M15.3759 5.2631C15.0105 5.26505 14.718 4.98016 14.7116 4.61735C14.7053 4.2487 15.0027 3.94336 15.3701 3.94142C15.7335 3.93947 16.0436 4.25017 16.0392 4.61151C16.0348 4.97042 15.7384 5.26164 15.3764 5.26359L15.3759 5.2631Z" fill="#F6F6F6"/>
</g>
<defs>
<clipPath id="clip0_1_56">
<rect width="20" height="19.9095" fill="white"/>
</clipPath>
</defs>
</svg>
