<svg width="20" height="20" viewBox="0 0 20 20" fill="none" xmlns="http://www.w3.org/2000/svg">
<g clip-path="url(#clip0_1_55)">
<path d="M7.07031 19.9095C7.07083 15.5683 7.07187 11.2271 7.0724 6.8859C7.0724 6.80294 7.0724 6.7205 7.0724 6.62562H11.0521V8.47295C11.1172 8.39207 11.1469 8.362 11.1682 8.32726C11.8885 7.15965 12.9635 6.53748 14.299 6.33994C15.1177 6.21862 15.9359 6.27876 16.7396 6.47474C18.2432 6.84131 19.1641 7.80878 19.6078 9.26C19.8193 9.95165 19.9151 10.6625 19.9625 11.3816C19.9698 11.49 19.987 11.5973 20 11.7051V19.91H15.8594C15.8583 17.5971 15.8625 15.2847 15.8505 12.9718C15.8484 12.5399 15.8036 12.1049 15.7359 11.6777C15.5682 10.6215 14.9937 10.0305 13.9922 9.93817C12.6292 9.81218 11.6495 10.3529 11.3677 11.7793C11.2646 12.3024 11.2245 12.8453 11.2203 13.3798C11.2036 15.5564 11.212 17.7329 11.2109 19.9095H7.07031V19.9095Z" fill="#F6F6F6"/>
<path d="M0.3125 19.9123C0.317708 19.8221 0.327604 19.7324 0.327604 19.6422C0.328125 15.3974 0.328125 11.1531 0.328125 6.90837C0.328125 6.81919 0.328125 6.73001 0.328125 6.62891H4.47917C4.47917 6.71394 4.47917 6.80104 4.47917 6.88814C4.47917 11.1391 4.47917 15.3901 4.47969 19.6411C4.47969 19.7313 4.4875 19.8215 4.49219 19.9118H0.3125V19.9123Z" fill="#F6F6F6"/>
<path d="M2.69486 0C2.87507 0.0502922 3.05996 0.089178 3.23548 0.153469C4.33757 0.558918 4.97142 1.68142 4.761 2.84281C4.55944 3.9539 3.55788 4.79124 2.41465 4.80369C1.28184 4.81613 0.263086 3.97672 0.0417318 2.85007C0.0307943 2.79355 0.0136068 2.73807 -0.000976562 2.6826C-0.000976562 2.48817 -0.000976562 2.29374 -0.000976562 2.09931C0.0115234 2.05628 0.0276693 2.01428 0.0365234 1.97021C0.157357 1.34597 0.475586 0.845635 0.986003 0.462481C1.3209 0.210501 1.7084 0.0907334 2.10892 0C2.30423 0 2.49954 0 2.69486 0Z" fill="#F6F6F6"/>
</g>
<defs>
<clipPath id="clip0_1_55">
<rect width="20" height="19.9095" fill="white"/>
</clipPath>
</defs>
</svg>
